<?xml version="1.0" encoding="UTF-8" standalone="no"?>
<svg
   contentStyleType="text/css"
   height="1381.4812"
   preserveAspectRatio="none"
   version="1.1"
   viewBox="0 0 1029.4918 1381.4812"
   width="1029.4918"
   zoomAndPan="magnify"
   id="svg58"
   sodipodi:docname="fig_33.svg"
   inkscape:version="1.2.2 (b0a8486541, 2022-12-01)"
   inkscape:export-filename="fig_33.png"
   inkscape:export-xdpi="96"
   inkscape:export-ydpi="96"
   xmlns:inkscape="http://www.inkscape.org/namespaces/inkscape"
   xmlns:sodipodi="http://sodipodi.sourceforge.net/DTD/sodipodi-0.dtd"
   xmlns="http://www.w3.org/2000/svg"
   xmlns:svg="http://www.w3.org/2000/svg">
  <sodipodi:namedview
     id="namedview60"
     pagecolor="#ffffff"
     bordercolor="#000000"
     borderopacity="0.25"
     inkscape:showpageshadow="2"
     inkscape:pageopacity="0.0"
     inkscape:pagecheckerboard="0"
     inkscape:deskcolor="#d1d1d1"
     showgrid="false"
     inkscape:zoom="0.53157499"
     inkscape:cx="531.4396"
     inkscape:cy="698.86659"
     inkscape:window-width="1920"
     inkscape:window-height="999"
     inkscape:window-x="0"
     inkscape:window-y="36"
     inkscape:window-maximized="1"
     inkscape:current-layer="svg58" />
  <defs
     id="defs2" />
  <g
     id="elem_Pais"
     style="stroke-width:0.195661"
     transform="matrix(5.1108874,0,0,5.1108874,-35.526212,-35.526212)">
    <rect
       codeLine="7"
       fill="#f1f1f1"
       height="86.135803"
       id="Pais"
       rx="0.48915184"
       ry="0.48915184"
       style="stroke:#181818;stroke-width:0.0978304"
       width="201.3333"
       x="7"
       y="7" />
    <circle
       cx="89.916702"
       cy="23"
       fill="#efd52e"
       style="stroke:#181818;stroke-width:0.195661"
       id="ellipse5"
       r="11" />
    <path
       d="M 90.7604,29.75 H 88.3073 V 19.5 H 85.1667 V 17.3594 H 93.901 V 19.5 h -3.1406 z"
       fill="#000000"
       id="path7"
       style="stroke-width:0.0382831" />
    <text
       fill="#000000"
       font-family="sans-serif"
       font-size="14px"
       lengthAdjust="spacing"
       textLength="27"
       x="110.4167"
       y="28.431999"
       id="text9"
       style="stroke-width:0.0382831">Pais</text>
    <line
       style="stroke:#181818;stroke-width:0.0978304"
       x1="8"
       x2="207.3333"
       y1="39"
       y2="39"
       id="line11" />
    <path
       d="m 20.4167,49.2346 c -1.61,0 -2.9167,1.3067 -2.9167,2.9167 0,0.1866 0,0.3733 0.035,0.5483 L 14,56.2346 v 2.3333 h 3.5 v -2.3333 h 2.3333 v -1.1667 l 0.035,-0.035 c 0.175,0.035 0.3617,0.035 0.5484,0.035 1.61,0 2.9166,-1.3066 2.9166,-2.9166 0,-1.61 -1.3066,-2.9167 -2.9166,-2.9167 M 21,50.4013 c 0.6417,0 1.1667,0.525 1.1667,1.1666 0,0.6417 -0.525,1.1667 -1.1667,1.1667 -0.6417,0 -1.1667,-0.525 -1.1667,-1.1667 0,-0.6416 0.525,-1.1666 1.1667,-1.1666"
       fill="#b8861b"
       style="stroke-width:0"
       id="path13" />
    <text
       fill="#000000"
       font-family="sans-serif"
       font-size="14px"
       font-weight="bold"
       lengthAdjust="spacing"
       textLength="47"
       x="28.3333"
       y="57.9659"
       id="text15"
       style="stroke-width:0.0382831">id_pais</text>
    <text
       fill="#000000"
       font-family="sans-serif"
       font-size="14px"
       lengthAdjust="spacing"
       textLength="56"
       x="75.333298"
       y="57.9659"
       id="text17"
       style="stroke-width:0.0382831">: BIGINT</text>
    <line
       style="stroke:#181818;stroke-width:0.195661"
       x1="8"
       x2="207.3333"
       y1="66.067902"
       y2="66.067902"
       id="line19" />
    <path
       d="m 17.5,76.3025 c -1.9367,0 -3.5,1.5633 -3.5,3.5 0,1.9367 1.5633,3.5 3.5,3.5 1.9367,0 3.5,-1.5633 3.5,-3.5 0,-1.9367 -1.5633,-3.5 -3.5,-3.5"
       fill="#efefef"
       style="stroke-width:0"
       id="path21" />
    <text
       fill="#000000"
       font-family="sans-serif"
       font-size="14px"
       lengthAdjust="spacing"
       textLength="174"
       x="28.3333"
       y="85.033897"
       id="text23"
       style="stroke-width:0.0382831">nombre: VARCHAR(20) NN</text>
  </g>
  <g
     id="elem_Ciudad"
     style="stroke-width:0.195661"
     transform="matrix(5.1108874,0,0,5.1108874,-35.526212,-35.526212)">
    <rect
       codeLine="12"
       fill="#f1f1f1"
       height="105.2038"
       id="Ciudad"
       rx="0.48915184"
       ry="0.48915184"
       style="stroke:#181818;stroke-width:0.0978304"
       width="201.3333"
       x="7"
       y="172" />
    <circle
       cx="79.416702"
       cy="188"
       fill="#efd52e"
       style="stroke:#181818;stroke-width:0.195661"
       id="ellipse27"
       r="11" />
    <path
       d="M 80.2604,194.75 H 77.8073 V 184.5 h -3.1406 v -2.1406 H 83.401 V 184.5 h -3.1406 z"
       fill="#000000"
       id="path29"
       style="stroke-width:0.0382831" />
    <text
       fill="#000000"
       font-family="sans-serif"
       font-size="14px"
       lengthAdjust="spacing"
       textLength="48"
       x="99.916702"
       y="193.43201"
       id="text31"
       style="stroke-width:0.0382831">Ciudad</text>
    <line
       style="stroke:#181818;stroke-width:0.0978304"
       x1="8"
       x2="207.3333"
       y1="204"
       y2="204"
       id="line33" />
    <path
       d="m 20.4167,214.2346 c -1.61,0 -2.9167,1.3067 -2.9167,2.9167 0,0.1866 0,0.3733 0.035,0.5483 L 14,221.2346 v 2.3333 h 3.5 v -2.3333 h 2.3333 v -1.1667 l 0.035,-0.035 c 0.175,0.035 0.3617,0.035 0.5484,0.035 1.61,0 2.9166,-1.3066 2.9166,-2.9166 0,-1.61 -1.3066,-2.9167 -2.9166,-2.9167 M 21,215.4013 c 0.6417,0 1.1667,0.525 1.1667,1.1666 0,0.6417 -0.525,1.1667 -1.1667,1.1667 -0.6417,0 -1.1667,-0.525 -1.1667,-1.1667 0,-0.6416 0.525,-1.1666 1.1667,-1.1666"
       fill="#b8861b"
       style="stroke-width:0"
       id="path35" />
    <text
       fill="#000000"
       font-family="sans-serif"
       font-size="14px"
       font-weight="bold"
       lengthAdjust="spacing"
       textLength="65"
       x="28.3333"
       y="222.9659"
       id="text37"
       style="stroke-width:0.0382831">id_ciudad</text>
    <text
       fill="#000000"
       font-family="sans-serif"
       font-size="14px"
       lengthAdjust="spacing"
       textLength="56"
       x="93.333298"
       y="222.9659"
       id="text39"
       style="stroke-width:0.0382831">: BIGINT</text>
    <line
       style="stroke:#181818;stroke-width:0.195661"
       x1="8"
       x2="207.3333"
       y1="231.0679"
       y2="231.0679"
       id="line41" />
    <path
       d="m 17.5,241.3025 c -1.9367,0 -3.5,1.5633 -3.5,3.5 0,1.9367 1.5633,3.5 3.5,3.5 1.9367,0 3.5,-1.5633 3.5,-3.5 0,-1.9367 -1.5633,-3.5 -3.5,-3.5"
       fill="#efefef"
       style="stroke-width:0"
       id="path43" />
    <text
       fill="#000000"
       font-family="sans-serif"
       font-size="14px"
       lengthAdjust="spacing"
       textLength="174"
       x="28.3333"
       y="250.03391"
       id="text45"
       style="stroke-width:0.0382831">nombre: VARCHAR(20) NN</text>
    <path
       d="m 20.4167,260.3704 c -1.61,0 -2.9167,1.3067 -2.9167,2.9167 0,0.1867 0,0.3733 0.035,0.5483 L 14,267.3704 v 2.3334 h 3.5 v -2.3334 h 2.3333 v -1.1666 l 0.035,-0.035 c 0.175,0.035 0.3617,0.035 0.5484,0.035 1.61,0 2.9166,-1.3067 2.9166,-2.9167 0,-1.61 -1.3066,-2.9167 -2.9166,-2.9167 M 21,261.5371 c 0.6417,0 1.1667,0.525 1.1667,1.1667 0,0.6416 -0.525,1.1666 -1.1667,1.1666 -0.6417,0 -1.1667,-0.525 -1.1667,-1.1666 0,-0.6417 0.525,-1.1667 1.1667,-1.1667"
       fill="#aaaaaa"
       style="stroke-width:0"
       id="path47" />
    <text
       fill="#000000"
       font-family="sans-serif"
       font-size="14px"
       lengthAdjust="spacing"
       textLength="129"
       x="28.3333"
       y="269.10181"
       id="text49"
       style="stroke-width:0.0382831">id_pais: BIGINT NN</text>
  </g>
  <g
     id="link_Pais_Ciudad"
     style="stroke-width:0.78264295;stroke-dasharray:none"
     transform="matrix(5.1108874,0,0,5.1108874,-35.526212,-35.526212)">
    <path
       codeLine="18"
       d="m 107.5,93.2 c 0,23.74 0,53.56 0,78.68"
       fill="none"
       id="Pais-Ciudad"
       style="stroke:#181818;stroke-width:0.78264295;stroke-dasharray:none" />
    <text
       fill="#000000"
       font-family="sans-serif"
       font-size="13px"
       lengthAdjust="spacing"
       textLength="95"
       x="108.5"
       y="137.897"
       id="text53"
       style="stroke-width:0.78264295;stroke-dasharray:none">id_pais = id_pais</text>
  </g>
</svg>
